<svg width="70" height="70" viewBox="0 0 70 70" fill="none" xmlns="http://www.w3.org/2000/svg">
<mask id="mask0_552_349" style="mask-type:alpha" maskUnits="userSpaceOnUse" x="0" y="0" width="70" height="70">
<rect width="70" height="70" fill="#D9D9D9"/>
</mask>
<g mask="url(#mask0_552_349)">
<path d="M21.5381 64.1667V43.8791L11.5543 27.7083L23.2494 8.75H46.7505L58.4456 27.7083L48.4618 43.8791V64.1667L34.9999 59.5109L21.5381 64.1667ZM24.4547 59.8872L34.9999 56.3587L45.5452 59.8872V46.6667H24.4547V59.8872ZM24.8478 11.6667L14.9311 27.7083L24.8478 43.75H45.1521L55.0688 27.7083L45.1521 11.6667H24.8478ZM31.9374 37.5185L23.6585 29.3125L25.7395 27.2315L31.9374 33.4294L44.2604 21.0335L46.3414 23.0417L31.9374 37.5185Z" fill="#1C1B1F"/>
</g>
</svg>
