<svg width="70" height="70" viewBox="0 0 70 70" fill="none" xmlns="http://www.w3.org/2000/svg">
<circle opacity="0.1" cx="35" cy="35" r="35" fill="#D5232E"/>
<mask id="mask0_552_85" style="mask-type:alpha" maskUnits="userSpaceOnUse" x="10" y="10" width="50" height="50">
<rect x="10" y="10" width="50" height="50" fill="#D9D9D9"/>
</mask>
<g mask="url(#mask0_552_85)">
<path d="M45.8573 52.5078L45.6328 50.6651C44.8422 50.4915 44.1911 50.2625 43.6797 49.9781C43.1682 49.6934 42.6816 49.292 42.2198 48.7739L40.4807 49.4713L39.3589 47.7724L40.7932 46.5703C40.5637 45.8331 40.449 45.1147 40.449 44.4151C40.449 43.7154 40.5637 42.9968 40.7932 42.2593L39.3589 41.0578L40.4807 39.3588L42.2198 40.0562C42.6816 39.5111 43.1682 39.1031 43.6797 38.8323C44.1911 38.5611 44.8422 38.3387 45.6328 38.1651L45.8573 36.3218H47.9406L48.1651 38.1651C48.9557 38.3387 49.6068 38.5611 50.1182 38.8323C50.6297 39.1031 51.1165 39.5111 51.5786 40.0562L53.3172 39.3588L54.4391 41.0578L53.0047 42.2593C53.2345 42.9968 53.3495 43.7154 53.3495 44.4151C53.3495 45.1147 53.2345 45.8331 53.0047 46.5703L54.4391 47.7724L53.3172 49.4713L51.5786 48.7739C51.1165 49.292 50.6297 49.6934 50.1182 49.9781C49.6068 50.2625 48.9557 50.4915 48.1651 50.6651L47.9406 52.5078H45.8573ZM50.062 47.5781C50.945 46.6954 51.3865 45.6411 51.3865 44.4151C51.3865 43.189 50.945 42.1347 50.062 41.252C49.1793 40.3694 48.125 39.9281 46.899 39.9281C45.6729 39.9281 44.6186 40.3694 43.7359 41.252C42.8533 42.1347 42.412 43.189 42.412 44.4151C42.412 45.6411 42.8533 46.6954 43.7359 47.5781C44.6186 48.4607 45.6729 48.902 46.899 48.902C48.125 48.902 49.1793 48.4607 50.062 47.5781ZM18.3333 47.5V22.5V31.7385V30.8333V47.5ZM19.6156 49.5833C18.6566 49.5833 17.8559 49.2621 17.2135 48.6198C16.5712 47.9774 16.25 47.1767 16.25 46.2177V23.7823C16.25 22.8232 16.5712 22.0225 17.2135 21.3802C17.8559 20.7378 18.6566 20.4166 19.6156 20.4166H29.9922L34.1589 24.5833H50.3844C51.3434 24.5833 52.1441 24.9045 52.7865 25.5468C53.4288 26.1892 53.75 26.9899 53.75 27.9489V32.7281C53.4187 32.5173 53.0863 32.3338 52.7526 32.1776C52.4186 32.0213 52.0566 31.875 51.6667 31.7385V27.9489C51.6667 27.575 51.5465 27.2677 51.3063 27.027C51.0656 26.7868 50.7583 26.6666 50.3844 26.6666H33.3214L29.1547 22.5H19.6156C19.2417 22.5 18.9344 22.6201 18.6937 22.8604C18.4535 23.101 18.3333 23.4083 18.3333 23.7823V46.2177C18.3333 46.5916 18.4535 46.8989 18.6937 47.1395C18.9344 47.3798 19.2417 47.5 19.6156 47.5H33.674C33.7514 47.8819 33.8429 48.2399 33.9484 48.5739C34.054 48.9076 34.1828 49.2441 34.3349 49.5833H19.6156Z" fill="#1C1B1F"/>
</g>
</svg>
