<svg width="70" height="70" viewBox="0 0 70 70" fill="none" xmlns="http://www.w3.org/2000/svg">
<circle opacity="0.1" cx="35" cy="35" r="35" fill="#D5232E"/>
<mask id="mask0_552_95" style="mask-type:alpha" maskUnits="userSpaceOnUse" x="10" y="10" width="50" height="50">
<rect x="10" y="10" width="50" height="50" fill="#D9D9D9"/>
</mask>
<g mask="url(#mask0_552_95)">
<path d="M27.3079 46.8589H29.1506V42.6922H33.3172V40.8495H29.1506V36.6829H27.3079V40.8495H23.1412V42.6922H27.3079V46.8589ZM37.7245 45.2964H46.8589V43.4537H37.7245V45.2964ZM37.7245 40.0881H46.8589V38.2454H37.7245V40.0881ZM39.375 31.8511L42.2917 28.9344L45.2084 31.8511L46.5146 30.5448L43.598 27.6042L46.5146 24.6875L45.2084 23.3813L42.2917 26.298L39.375 23.3813L38.0688 24.6875L40.9855 27.6042L38.0688 30.5448L39.375 31.8511ZM23.662 28.5256H32.7964V26.6829H23.662V28.5256ZM21.699 51.6667C20.74 51.6667 19.9393 51.3455 19.2969 50.7032C18.6546 50.0608 18.3334 49.2601 18.3334 48.3011V21.699C18.3334 20.74 18.6546 19.9393 19.2969 19.2969C19.9393 18.6546 20.74 18.3334 21.699 18.3334H48.3011C49.2601 18.3334 50.0608 18.6546 50.7032 19.2969C51.3455 19.9393 51.6667 20.74 51.6667 21.699V48.3011C51.6667 49.2601 51.3455 50.0608 50.7032 50.7032C50.0608 51.3455 49.2601 51.6667 48.3011 51.6667H21.699ZM21.699 49.5834H48.3011C48.6219 49.5834 48.9158 49.4499 49.1829 49.1829C49.4499 48.9158 49.5834 48.6219 49.5834 48.3011V21.699C49.5834 21.3782 49.4499 21.0842 49.1829 20.8172C48.9158 20.5502 48.6219 20.4167 48.3011 20.4167H21.699C21.3782 20.4167 21.0842 20.5502 20.8172 20.8172C20.5502 21.0842 20.4167 21.3782 20.4167 21.699V48.3011C20.4167 48.6219 20.5502 48.9158 20.8172 49.1829C21.0842 49.4499 21.3782 49.5834 21.699 49.5834Z" fill="black"/>
</g>
</svg>
