<svg width="30" height="30" viewBox="0 0 30 30" fill="none" xmlns="http://www.w3.org/2000/svg">
<mask id="mask0_552_404" style="mask-type:alpha" maskUnits="userSpaceOnUse" x="0" y="0" width="30" height="30">
<rect width="30" height="30" fill="#D9D9D9"/>
</mask>
<g mask="url(#mask0_552_404)">
<path d="M1.25 21.9712V20.8919C1.25 20.1242 1.66021 19.4871 2.48062 18.9806C3.30125 18.4744 4.3574 18.2212 5.64906 18.2212C5.83969 18.2212 6.04396 18.2304 6.26188 18.2487C6.48 18.2673 6.71167 18.2974 6.95687 18.3391C6.76125 18.6803 6.61854 19.0304 6.52875 19.3894C6.43917 19.7483 6.39437 20.1081 6.39437 20.4688V21.9712H1.25ZM8.75 21.9712V20.565C8.75 20.0612 8.89625 19.6007 9.18875 19.1834C9.48125 18.7664 9.91271 18.4055 10.4831 18.1009C11.0538 17.7966 11.7184 17.5682 12.4772 17.4159C13.2359 17.2636 14.0736 17.1875 14.9903 17.1875C15.9247 17.1875 16.7713 17.2636 17.53 17.4159C18.2888 17.5682 18.9534 17.7966 19.5241 18.1009C20.0945 18.4055 20.5248 18.7664 20.815 19.1834C21.105 19.6007 21.25 20.0612 21.25 20.565V21.9712H8.75ZM23.6056 21.9712V20.4759C23.6056 20.0772 23.562 19.7015 23.4747 19.3488C23.3874 18.996 23.2565 18.6595 23.0819 18.3391C23.3429 18.2974 23.5773 18.2673 23.785 18.2487C23.9925 18.2304 24.1892 18.2212 24.375 18.2212C25.6667 18.2212 26.7188 18.4732 27.5312 18.9772C28.3438 19.4811 28.75 20.1194 28.75 20.8919V21.9712H23.6056ZM10.0359 20.7212H19.9713V20.4569C19.9231 19.8637 19.4371 19.379 18.5131 19.0025C17.5894 18.6258 16.4183 18.4375 15 18.4375C13.5817 18.4375 12.4106 18.6258 11.4869 19.0025C10.5629 19.379 10.0793 19.8637 10.0359 20.4569V20.7212ZM5.6425 17.0431C5.15167 17.0431 4.73354 16.869 4.38812 16.5206C4.04292 16.1723 3.87031 15.7535 3.87031 15.2644C3.87031 14.7804 4.04448 14.367 4.39281 14.0241C4.74115 13.6811 5.1599 13.5097 5.64906 13.5097C6.13302 13.5097 6.55052 13.6811 6.90156 14.0241C7.2524 14.367 7.42781 14.7828 7.42781 15.2716C7.42781 15.7459 7.25677 16.1598 6.91469 16.5131C6.5724 16.8665 6.14833 17.0431 5.6425 17.0431ZM24.375 17.0431C23.8958 17.0431 23.4796 16.8665 23.1262 16.5131C22.7729 16.1598 22.5963 15.7459 22.5963 15.2716C22.5963 14.7828 22.7729 14.367 23.1262 14.0241C23.4796 13.6811 23.8974 13.5097 24.3797 13.5097C24.8766 13.5097 25.2965 13.6811 25.6394 14.0241C25.9823 14.367 26.1538 14.7804 26.1538 15.2644C26.1538 15.7535 25.9833 16.1723 25.6425 16.5206C25.3015 16.869 24.879 17.0431 24.375 17.0431ZM15.0084 16.25C14.2497 16.25 13.6019 15.9835 13.065 15.4506C12.5281 14.9179 12.2597 14.2709 12.2597 13.5097C12.2597 12.7332 12.526 12.0824 13.0588 11.5572C13.5917 11.0318 14.2387 10.7691 15 10.7691C15.7765 10.7691 16.4273 11.0309 16.9525 11.5547C17.4777 12.0782 17.7403 12.7271 17.7403 13.5012C17.7403 14.26 17.4785 14.9078 16.955 15.4447C16.4315 15.9816 15.7826 16.25 15.0084 16.25ZM15.0119 15C15.4223 15 15.7712 14.8522 16.0588 14.5566C16.3465 14.2607 16.4903 13.9077 16.4903 13.4975C16.4903 13.0873 16.3475 12.7383 16.0619 12.4506C15.7762 12.1629 15.4223 12.0191 15 12.0191C14.5977 12.0191 14.2488 12.162 13.9531 12.4478C13.6575 12.7334 13.5097 13.0874 13.5097 13.5097C13.5097 13.9118 13.6575 14.2607 13.9531 14.5566C14.2488 14.8522 14.6017 15 15.0119 15Z" fill="#1C1B1F"/>
</g>
</svg>
