<svg width="70" height="70" viewBox="0 0 70 70" fill="none" xmlns="http://www.w3.org/2000/svg">
<circle opacity="0.1" cx="35" cy="35" r="35" fill="#D5232E"/>
<mask id="mask0_552_105" style="mask-type:alpha" maskUnits="userSpaceOnUse" x="10" y="10" width="50" height="50">
<rect x="10" y="10" width="50" height="50" fill="#D9D9D9"/>
</mask>
<g mask="url(#mask0_552_105)">
<path d="M20.3365 52.7083C18.8941 52.7083 17.6655 52.2009 16.6506 51.1859C15.6356 50.171 15.1282 48.9424 15.1282 47.5C15.1282 46.6774 15.3086 45.9049 15.6693 45.1823C16.0297 44.4597 16.5438 43.8434 17.2115 43.3333V33.9583H21.9792V22.5H34.6797L43.75 43.7302C43.9316 44.1628 44.0813 44.6021 44.199 45.0479C44.3164 45.4941 44.375 45.9642 44.375 46.4583C44.375 48.2052 43.77 49.6835 42.5599 50.8932C41.3502 52.1033 39.8719 52.7083 38.125 52.7083C36.7816 52.7083 35.5711 52.3285 34.4933 51.5687C33.4155 50.8087 32.6617 49.7997 32.2318 48.5417H25.4209C25.183 49.7649 24.586 50.7653 23.6297 51.5427C22.6735 52.3198 21.5757 52.7083 20.3365 52.7083ZM46.4584 50.625V19.375H48.5417V48.5417H54.8719V50.625H46.4584ZM22.5422 49.7057C23.1551 49.0925 23.4615 48.3573 23.4615 47.5C23.4615 46.6427 23.1551 45.9075 22.5422 45.2943C21.929 44.6814 21.1938 44.375 20.3365 44.375C19.4792 44.375 18.7441 44.6814 18.1313 45.2943C17.5181 45.9075 17.2115 46.6427 17.2115 47.5C17.2115 48.3573 17.5181 49.0925 18.1313 49.7057C18.7441 50.3186 19.4792 50.625 20.3365 50.625C21.1938 50.625 21.929 50.3186 22.5422 49.7057ZM41.0599 49.3932C41.8811 48.5717 42.2917 47.5934 42.2917 46.4583C42.2917 45.3233 41.8811 44.345 41.0599 43.5234C40.2384 42.7023 39.2601 42.2917 38.125 42.2917C36.99 42.2917 36.0117 42.7023 35.1902 43.5234C34.369 44.345 33.9584 45.3233 33.9584 46.4583C33.9584 47.5934 34.369 48.5717 35.1902 49.3932C36.0117 50.2144 36.99 50.625 38.125 50.625C39.2601 50.625 40.2384 50.2144 41.0599 49.3932ZM25.4209 46.4583H31.887C31.8495 45.6757 31.9811 44.9191 32.2818 44.1885C32.5822 43.458 33.0195 42.8257 33.5938 42.2917H29.2667L23.173 36.0417H19.2948V42.4521C19.4553 42.3986 19.6223 42.3585 19.7959 42.3318C19.9695 42.305 20.1497 42.2917 20.3365 42.2917C21.5757 42.2917 22.6735 42.6802 23.6297 43.4573C24.586 44.2347 25.183 45.2351 25.4209 46.4583ZM30.1563 40.2083H38.1969C38.5441 40.2083 38.8848 40.2484 39.2188 40.3286C39.5528 40.4089 39.8801 40.529 40.2006 40.6891L33.3214 24.5833H24.0625V33.9583L30.1563 40.2083ZM29.2667 42.2917L28.3032 41.3021C27.6608 40.6424 26.9664 39.9219 26.2198 39.1406C25.4733 38.3594 24.7789 37.6476 24.1365 37.0052L23.173 36.0417L29.2667 42.2917Z" fill="black"/>
</g>
</svg>
