<svg width="30" height="30" viewBox="0 0 30 30" fill="none" xmlns="http://www.w3.org/2000/svg">
<mask id="mask0_552_399" style="mask-type:alpha" maskUnits="userSpaceOnUse" x="0" y="0" width="30" height="30">
<rect width="30" height="30" fill="#D9D9D9"/>
</mask>
<g mask="url(#mask0_552_399)">
<path d="M7.01937 25C6.44396 25 5.96354 24.8073 5.57812 24.4219C5.19271 24.0365 5 23.556 5 22.9806V19.5194C5 18.944 5.19271 18.4635 5.57812 18.0781C5.96354 17.6927 6.44396 17.5 7.01937 17.5H19.375V12.5H20.625V17.5H22.9806C23.556 17.5 24.0365 17.6927 24.4219 18.0781C24.8073 18.4635 25 18.944 25 19.5194V22.9806C25 23.556 24.8073 24.0365 24.4219 24.4219C24.0365 24.8073 23.556 25 22.9806 25H7.01937ZM7.01937 23.75H22.9806C23.205 23.75 23.3894 23.6779 23.5338 23.5338C23.6779 23.3894 23.75 23.205 23.75 22.9806V19.5194C23.75 19.295 23.6779 19.1106 23.5338 18.9663C23.3894 18.8221 23.205 18.75 22.9806 18.75H7.01937C6.795 18.75 6.61062 18.8221 6.46625 18.9663C6.32208 19.1106 6.25 19.295 6.25 19.5194V22.9806C6.25 23.205 6.32208 23.3894 6.46625 23.5338C6.61062 23.6779 6.795 23.75 7.01937 23.75ZM9.43625 21.9362C9.61979 21.7527 9.71156 21.524 9.71156 21.25C9.71156 20.976 9.61979 20.7473 9.43625 20.5638C9.25271 20.3802 9.02396 20.2884 8.75 20.2884C8.47604 20.2884 8.24729 20.3802 8.06375 20.5638C7.88021 20.7473 7.78844 20.976 7.78844 21.25C7.78844 21.524 7.88021 21.7527 8.06375 21.9362C8.24729 22.1198 8.47604 22.2116 8.75 22.2116C9.02396 22.2116 9.25271 22.1198 9.43625 21.9362ZM13.8112 21.9362C13.9948 21.7527 14.0866 21.524 14.0866 21.25C14.0866 20.976 13.9948 20.7473 13.8112 20.5638C13.6277 20.3802 13.399 20.2884 13.125 20.2884C12.851 20.2884 12.6223 20.3802 12.4388 20.5638C12.2552 20.7473 12.1634 20.976 12.1634 21.25C12.1634 21.524 12.2552 21.7527 12.4388 21.9362C12.6223 22.1198 12.851 22.2116 13.125 22.2116C13.399 22.2116 13.6277 22.1198 13.8112 21.9362ZM18.1863 21.9362C18.3698 21.7527 18.4616 21.524 18.4616 21.25C18.4616 20.976 18.3698 20.7473 18.1863 20.5638C18.0027 20.3802 17.774 20.2884 17.5 20.2884C17.226 20.2884 16.9973 20.3802 16.8137 20.5638C16.6302 20.7473 16.5384 20.976 16.5384 21.25C16.5384 21.524 16.6302 21.7527 16.8137 21.9362C16.9973 22.1198 17.226 22.2116 17.5 22.2116C17.774 22.2116 18.0027 22.1198 18.1863 21.9362ZM17.3797 10.5047L16.4806 9.60563C17.0223 9.10563 17.5784 8.73385 18.1491 8.49031C18.7195 8.24677 19.3365 8.125 20 8.125C20.6635 8.125 21.2805 8.24677 21.8509 8.49031C22.4216 8.73385 22.9777 9.10563 23.5194 9.60563L22.6203 10.5047C22.2645 10.1491 21.8722 9.87187 21.4434 9.67312C21.0149 9.47437 20.5337 9.375 20 9.375C19.4663 9.375 18.9851 9.47437 18.5566 9.67312C18.1278 9.87187 17.7355 10.1491 17.3797 10.5047ZM14.2547 7.37969L13.3703 6.49531C14.2389 5.62656 15.2332 4.95188 16.3534 4.47125C17.4736 3.99042 18.6892 3.75 20 3.75C21.3108 3.75 22.5264 3.99042 23.6466 4.47125C24.7668 4.95188 25.7611 5.62656 26.6297 6.49531L25.7453 7.37969C25.0578 6.69219 24.2289 6.12375 23.2584 5.67438C22.288 5.22479 21.2019 5 20 5C18.7981 5 17.712 5.22479 16.7416 5.67438C15.7711 6.12375 14.9422 6.69219 14.2547 7.37969Z" fill="#1C1B1F"/>
</g>
</svg>
