<svg width="70" height="70" viewBox="0 0 70 70" fill="none" xmlns="http://www.w3.org/2000/svg">
<mask id="mask0_552_335" style="mask-type:alpha" maskUnits="userSpaceOnUse" x="0" y="0" width="70" height="70">
<rect width="70" height="70" fill="#D9D9D9"/>
</mask>
<g mask="url(#mask0_552_335)">
<path d="M44.6607 30.9619C45.5678 30.9619 46.3347 30.6442 46.9613 30.0089C47.5874 29.3735 47.9004 28.6023 47.9004 27.6952C47.9004 26.7876 47.583 26.0208 46.9481 25.3947C46.3128 24.7681 45.5416 24.4548 44.6345 24.4548C43.7269 24.4548 42.9601 24.7725 42.334 25.4078C41.7074 26.0432 41.3941 26.8144 41.3941 27.7215C41.3941 28.629 41.7117 29.3959 42.3471 30.022C42.9819 30.6486 43.7532 30.9619 44.6607 30.9619ZM25.3655 30.9619C26.2731 30.9619 27.0399 30.6442 27.666 30.0089C28.2926 29.3735 28.6059 28.6023 28.6059 27.6952C28.6059 26.7876 28.2883 26.0208 27.6529 25.3947C27.0181 24.7681 26.2468 24.4548 25.3393 24.4548C24.4322 24.4548 23.6653 24.7725 23.0387 25.4078C22.4126 26.0432 22.0996 26.8144 22.0996 27.7215C22.0996 28.629 22.417 29.3959 23.0519 30.022C23.6872 30.6486 24.4584 30.9619 25.3655 30.9619ZM42.6869 46.9445C45.0299 45.4093 46.7904 43.3723 47.9682 40.8333H45.0625C43.9931 42.6319 42.5712 44.0538 40.7969 45.099C39.0226 46.1441 37.0903 46.6667 35 46.6667C32.9097 46.6667 30.9774 46.1441 29.2031 45.099C27.4288 44.0538 26.0069 42.6319 24.9375 40.8333H22.0318C23.2096 43.3723 24.9701 45.4093 27.3131 46.9445C29.6557 48.4791 32.218 49.2465 35 49.2465C37.782 49.2465 40.3443 48.4791 42.6869 46.9445ZM24.7712 59.1835C21.576 57.8059 18.7965 55.9363 16.4325 53.5748C14.0685 51.2133 12.1973 48.4361 10.8186 45.2433C9.43955 42.051 8.75 38.6398 8.75 35.0095C8.75 31.3797 9.43882 27.9669 10.8165 24.7712C12.1941 21.576 14.0637 18.7965 16.4252 16.4325C18.7867 14.0685 21.5639 12.1973 24.7567 10.8186C27.949 9.43955 31.3602 8.75 34.9905 8.75C38.6203 8.75 42.0331 9.43882 45.2288 10.8165C48.424 12.1941 51.2035 14.0637 53.5675 16.4252C55.9315 18.7867 57.8027 21.5639 59.1814 24.7567C60.5605 27.949 61.25 31.3602 61.25 34.9905C61.25 38.6203 60.5612 42.0331 59.1835 45.2288C57.8059 48.424 55.9363 51.2035 53.5748 53.5675C51.2133 55.9315 48.4361 57.8027 45.2433 59.1814C42.051 60.5605 38.6398 61.25 35.0095 61.25C31.3797 61.25 27.9669 60.5612 24.7712 59.1835ZM51.5521 51.5521C56.0729 47.0312 58.3333 41.5139 58.3333 35C58.3333 28.4861 56.0729 22.9688 51.5521 18.4479C47.0312 13.9271 41.5139 11.6667 35 11.6667C28.4861 11.6667 22.9688 13.9271 18.4479 18.4479C13.9271 22.9688 11.6667 28.4861 11.6667 35C11.6667 41.5139 13.9271 47.0312 18.4479 51.5521C22.9688 56.0729 28.4861 58.3333 35 58.3333C41.5139 58.3333 47.0312 56.0729 51.5521 51.5521Z" fill="#1C1B1F"/>
</g>
</svg>
