<svg width="30" height="30" viewBox="0 0 30 30" fill="none" xmlns="http://www.w3.org/2000/svg">
<mask id="mask0_552_409" style="mask-type:alpha" maskUnits="userSpaceOnUse" x="0" y="0" width="30" height="30">
<rect width="30" height="30" fill="#D9D9D9"/>
</mask>
<g mask="url(#mask0_552_409)">
<path d="M4.0144 26.2019L6.00972 16.2259H23.9663L25.9616 26.2019H4.0144ZM4.61534 5V3.75H8.00472V5H4.61534ZM5.56253 24.9519H14.375V21.875H6.18284L5.56253 24.9519ZM7.5119 11.5359L6.62034 10.6756L9.0119 8.28375L9.90378 9.14438L7.5119 11.5359ZM6.44222 20.625H14.375V17.4759H7.06253L6.44222 20.625ZM11.4194 7.30656C10.4411 6.32823 9.9519 5.13469 9.9519 3.72594H11.2019C11.2019 4.78365 11.5706 5.68104 12.3078 6.41813C13.0449 7.15542 13.9423 7.52406 15 7.52406C16.0577 7.52406 16.9551 7.15542 17.6922 6.41813C18.4295 5.68104 18.7982 4.78365 18.7982 3.72594H20.0482C20.0482 5.13469 19.559 6.32823 18.5807 7.30656C17.6023 8.2849 16.4088 8.77406 15 8.77406C13.5913 8.77406 12.3977 8.2849 11.4194 7.30656ZM14.375 13.9903V10.6009H15.625V13.9903H14.375ZM15.625 24.9519H24.4135L23.7932 21.875H15.625V24.9519ZM15.625 20.625H23.5338L22.9135 17.4759H15.625V20.625ZM22.536 11.56L20.1275 9.14438L20.9882 8.28375L23.4278 10.6681L22.536 11.56ZM21.9953 5V3.75H25.3847V5H21.9953Z" fill="#1C1B1F"/>
</g>
</svg>
