<svg width="70" height="70" viewBox="0 0 70 70" fill="none" xmlns="http://www.w3.org/2000/svg">
<mask id="mask0_552_342" style="mask-type:alpha" maskUnits="userSpaceOnUse" x="0" y="0" width="70" height="70">
<rect width="70" height="70" fill="#D9D9D9"/>
</mask>
<g mask="url(#mask0_552_342)">
<path d="M5.58685 58.8941V54.0932C5.58685 52.8255 5.92519 51.6923 6.60185 50.6939C7.27852 49.6954 8.23397 48.8877 9.46821 48.2708C11.8351 47.0818 14.4618 46.1247 17.3483 45.3994C20.2353 44.6736 23.1204 44.3107 26.0035 44.3107C28.8862 44.3107 31.771 44.6736 34.658 45.3994C37.5445 46.1247 40.1712 47.0818 42.5381 48.2708C43.7723 48.8877 44.7278 49.6954 45.4045 50.6939C46.0816 51.6923 46.4202 52.8255 46.4202 54.0932V58.8941H5.58685ZM8.50352 55.9774H43.5035V54.0932C43.5035 53.2965 43.2763 52.6419 42.8218 52.1296C42.3672 51.6172 41.8092 51.1836 41.1476 50.8288C39.3227 49.8789 37.037 49.0413 34.2905 48.316C31.544 47.5903 28.7816 47.2274 26.0035 47.2274C23.2249 47.2274 20.4623 47.5903 17.7158 48.316C14.9693 49.0413 12.6836 49.8789 10.8587 50.8288C10.1971 51.1836 9.63907 51.6172 9.18456 52.1296C8.73053 52.6419 8.50352 53.2965 8.50352 54.0932V55.9774ZM19.7546 35.3026C18.0872 33.6352 17.2535 31.4405 17.2535 28.7182H16.6359C16.3107 28.7182 16.0426 28.6125 15.8316 28.401C15.6202 28.1896 15.5145 27.9213 15.5145 27.596C15.5145 27.2708 15.6202 27.0025 15.8316 26.791C16.0426 26.5801 16.3107 26.4746 16.6359 26.4746H17.2535C17.3279 24.9973 17.638 23.6549 18.1839 22.4474C18.7303 21.2394 19.6168 20.0876 20.8432 18.9919V21.7627C20.8432 22.0879 20.9487 22.3563 21.1597 22.5677C21.3711 22.7792 21.6395 22.8849 21.9647 22.8849C22.2899 22.8849 22.5582 22.7792 22.7697 22.5677C22.9811 22.3563 23.0869 22.0879 23.0869 21.7627V17.9375C23.4869 17.7917 23.9393 17.6636 24.4438 17.5532C24.9489 17.4429 25.4688 17.3877 26.0035 17.3877C26.5382 17.3877 27.0579 17.4429 27.5625 17.5532C28.0671 17.6636 28.5196 17.7917 28.9202 17.9375V21.7627C28.9202 22.0879 29.0257 22.3563 29.2366 22.5677C29.4481 22.7792 29.7164 22.8849 30.0416 22.8849C30.3669 22.8849 30.6352 22.7792 30.8466 22.5677C31.0576 22.3563 31.1631 22.0879 31.1631 21.7627V18.9919C32.427 20.0876 33.3227 21.2394 33.8501 22.4474C34.3775 23.6549 34.6787 24.9973 34.7535 26.4746H35.3704C35.6956 26.4746 35.9639 26.5801 36.1754 26.791C36.3864 27.0025 36.4919 27.2708 36.4919 27.596C36.4919 27.9213 36.3864 28.1896 36.1754 28.401C35.9639 28.6125 35.6956 28.7182 35.3704 28.7182H34.7535C34.7535 31.4405 33.9196 33.6352 32.2517 35.3026C30.5839 36.9705 28.5012 37.8044 26.0035 37.8044C23.5054 37.8044 21.4224 36.9705 19.7546 35.3026ZM30.1787 33.2303C31.2841 32.1254 31.8369 30.7334 31.8369 29.0544H20.1702C20.1702 30.7334 20.7227 32.1254 21.8276 33.2303C22.9325 34.3352 24.3245 34.8877 26.0035 34.8877C27.6821 34.8877 29.0738 34.3352 30.1787 33.2303ZM47.9901 43.3016L47.7772 41.2256C47.4106 41.1284 47.0283 40.9724 46.6302 40.7575C46.2321 40.5426 45.8928 40.295 45.6123 40.0145L43.6829 40.8559L42.5607 38.904L44.2772 37.6702C44.2023 37.4495 44.1649 37.2475 44.1649 37.0643V35.8808C44.1649 35.716 44.2023 35.5046 44.2772 35.2465L42.5607 34.0127L43.6829 32.0607L45.6123 32.9022C45.8816 32.6329 46.218 32.3879 46.6214 32.1672C47.0254 31.947 47.4106 31.7883 47.7772 31.691L47.9901 29.6151H50.2337L50.4474 31.691C50.8134 31.7883 51.1984 31.947 51.6024 32.1672C52.0063 32.3879 52.343 32.6329 52.6123 32.9022L54.5416 32.0607L55.6631 34.0127L53.9474 35.2465C54.0217 35.5046 54.0589 35.716 54.0589 35.8808V37.0643C54.0589 37.2475 54.0217 37.4495 53.9474 37.6702L55.6631 38.904L54.5416 40.8559L52.6123 40.0145C52.3318 40.295 51.9925 40.5426 51.5944 40.7575C51.1957 40.9724 50.8134 41.1284 50.4474 41.2256L50.2337 43.3016H47.9901ZM50.9797 38.3265C51.492 37.8141 51.7482 37.1914 51.7482 36.4583C51.7482 35.7253 51.492 35.1026 50.9797 34.5902C50.4678 34.0783 49.8453 33.8224 49.1123 33.8224C48.3792 33.8224 47.7565 34.0783 47.2441 34.5902C46.7318 35.1026 46.4756 35.7253 46.4756 36.4583C46.4756 37.1914 46.7318 37.8141 47.2441 38.3265C47.7565 38.8383 48.3792 39.0943 49.1123 39.0943C49.8453 39.0943 50.4678 38.8383 50.9797 38.3265ZM55.0353 27.4838L54.7881 25.2066C54.2388 25.0982 53.6603 24.8784 53.0527 24.5474C52.445 24.2168 51.958 23.8122 51.5914 23.3333L49.4265 24.2419L48.1702 22.0879L50.0879 20.6857C49.9907 20.4052 49.9233 20.1175 49.8859 19.8224C49.8485 19.5268 49.8298 19.2388 49.8298 18.9583C49.8298 18.6779 49.8485 18.3898 49.8859 18.0943C49.9233 17.7992 49.9907 17.5114 50.0879 17.2309L48.1702 15.8288L49.4265 13.6748L51.5914 14.5833C51.958 14.1045 52.445 13.6998 53.0527 13.3693C53.6603 13.0382 54.2388 12.8185 54.7881 12.7101L55.0353 10.4329H57.548L57.7952 12.7101C58.3445 12.8185 58.923 13.0382 59.5306 13.3693C60.1382 13.6998 60.6253 14.1045 60.9919 14.5833L63.1568 13.6748L64.4131 15.8288L62.4954 17.2309C62.5926 17.5114 62.6599 17.7992 62.6974 18.0943C62.7348 18.3898 62.7535 18.6779 62.7535 18.9583C62.7535 19.2388 62.7348 19.5268 62.6974 19.8224C62.6599 20.1175 62.5926 20.4052 62.4954 20.6857L64.4131 22.0879L63.1568 24.2419L60.9919 23.3333C60.6253 23.8122 60.1382 24.2168 59.5306 24.5474C58.923 24.8784 58.3445 25.0982 57.7952 25.2066L57.548 27.4838H55.0353ZM59.1325 21.7992C59.8937 21.0384 60.2744 20.0915 60.2744 18.9583C60.2744 17.8252 59.8937 16.8783 59.1325 16.1175C58.3717 15.3563 57.4248 14.9756 56.2916 14.9756C55.1585 14.9756 54.2116 15.3563 53.4508 16.1175C52.6896 16.8783 52.3089 17.8252 52.3089 18.9583C52.3089 20.0915 52.6896 21.0384 53.4508 21.7992C54.2116 22.5604 55.1585 22.941 56.2916 22.941C57.4248 22.941 58.3717 22.5604 59.1325 21.7992Z" fill="#1C1B1F"/>
</g>
</svg>
